<mxfile host="app.diagrams.net" modified="2023-11-02T16:43:12.035Z" agent="Mozilla/5.0 (Windows NT 10.0; Win64; x64) AppleWebKit/537.36 (KHTML, like Gecko) Chrome/118.0.0.0 Safari/537.36 Edg/118.0.2088.76" etag="HV7UpuT2jrRnZ-o0XxyA" version="22.0.8" type="github">
  <diagram name="Page-1" id="YCPkpIV15pj19EJo4fGA">
    <mxGraphModel dx="1155" dy="623" grid="1" gridSize="10" guides="1" tooltips="1" connect="1" arrows="1" fold="1" page="1" pageScale="1" pageWidth="850" pageHeight="1100" math="0" shadow="0">
      <root>
        <mxCell id="0" />
        <mxCell id="1" parent="0" />
        <mxCell id="SxENN698W6gbEIMHwy4F-3" value="" style="edgeStyle=orthogonalEdgeStyle;rounded=0;orthogonalLoop=1;jettySize=auto;html=1;" edge="1" parent="1" source="SxENN698W6gbEIMHwy4F-1" target="SxENN698W6gbEIMHwy4F-2">
          <mxGeometry relative="1" as="geometry" />
        </mxCell>
        <mxCell id="SxENN698W6gbEIMHwy4F-1" value="Inventory Check" style="rounded=1;whiteSpace=wrap;html=1;" vertex="1" parent="1">
          <mxGeometry x="80" y="20" width="120" height="60" as="geometry" />
        </mxCell>
        <mxCell id="SxENN698W6gbEIMHwy4F-2" value="" style="whiteSpace=wrap;html=1;rounded=1;" vertex="1" parent="1">
          <mxGeometry x="80" y="140" width="120" height="60" as="geometry" />
        </mxCell>
      </root>
    </mxGraphModel>
  </diagram>
</mxfile>
